<svg xmlns="http://www.w3.org/2000/svg" version="1.1" xmlns:xlink="http://www.w3.org/1999/xlink" xmlns:svgjs="http://svgjs.com/svgjs" width="1440" height="560" preserveAspectRatio="none" viewBox="0 0 1440 560"><g mask="url(&quot;#SvgjsMask1076&quot;)" fill="none"><rect width="1440" height="560" x="0" y="0" fill="rgba(255, 255, 255, 1)"></rect><g transform="translate(-302.4, 112)" stroke-linecap="round"><path d="M430 264.46 L430 295.54" stroke-width="15" stroke="rgba(255, 136, 155, 1)"></path><path d="M450 209.12 L450 350.88" stroke-width="15" stroke="rgba(34, 0, 255, 1)"></path><path d="M470 219.41 L470 340.6" stroke-width="15" stroke="rgba(255, 136, 155, 1)"></path><path d="M490 229.54 L490 330.46" stroke-width="15" stroke="rgba(34, 0, 255, 1)"></path><path d="M510 214.13 L510 345.87" stroke-width="15" stroke="rgba(34, 0, 255, 1)"></path><path d="M530 223.97 L530 336.03" stroke-width="15" stroke="rgba(34, 0, 255, 1)"></path><path d="M550 186.07 L550 373.93" stroke-width="15" stroke="rgba(255, 136, 155, 1)"></path><path d="M570 247.66 L570 312.34" stroke-width="15" stroke="rgba(255, 136, 155, 1)"></path><path d="M590 260.62 L590 299.38" stroke-width="15" stroke="rgba(255, 136, 155, 1)"></path><path d="M610 264.69 L610 295.31" stroke-width="15" stroke="rgba(34, 0, 255, 1)"></path><path d="M630 208.5 L630 351.5" stroke-width="15" stroke="rgba(34, 0, 255, 1)"></path><path d="M650 216.47 L650 343.52" stroke-width="15" stroke="rgba(34, 0, 255, 1)"></path><path d="M670 180.97 L670 379.03" stroke-width="15" stroke="rgba(255, 136, 155, 1)"></path><path d="M690 266.05 L690 293.95" stroke-width="15" stroke="rgba(34, 0, 255, 1)"></path><path d="M710 198.68 L710 361.32" stroke-width="15" stroke="rgba(34, 0, 255, 1)"></path><path d="M730 227.57 L730 332.43" stroke-width="15" stroke="rgba(34, 0, 255, 1)"></path><path d="M750 254.07 L750 305.93" stroke-width="15" stroke="rgba(34, 0, 255, 1)"></path><path d="M770 180.82 L770 379.18" stroke-width="15" stroke="rgba(34, 0, 255, 1)"></path><path d="M790 264.97 L790 295.03" stroke-width="15" stroke="rgba(255, 136, 155, 1)"></path><path d="M810 228.14 L810 331.86" stroke-width="15" stroke="rgba(34, 0, 255, 1)"></path><path d="M830 188.51 L830 371.49" stroke-width="15" stroke="rgba(34, 0, 255, 1)"></path><path d="M850 236.82 L850 323.18" stroke-width="15" stroke="rgba(34, 0, 255, 1)"></path><path d="M870 206.61 L870 353.39" stroke-width="15" stroke="rgba(255, 136, 155, 1)"></path><path d="M890 173.48 L890 386.52" stroke-width="15" stroke="rgba(34, 0, 255, 1)"></path><path d="M910 181.02 L910 378.98" stroke-width="15" stroke="rgba(34, 0, 255, 1)"></path><path d="M930 213.09 L930 346.9" stroke-width="15" stroke="rgba(34, 0, 255, 1)"></path><path d="M950 253.91 L950 306.08" stroke-width="15" stroke="rgba(255, 136, 155, 1)"></path><path d="M970 257.25 L970 302.75" stroke-width="15" stroke="rgba(34, 0, 255, 1)"></path><path d="M990 207.67 L990 352.33" stroke-width="15" stroke="rgba(34, 0, 255, 1)"></path><path d="M1010 183.64 L1010 376.36" stroke-width="15" stroke="rgba(255, 136, 155, 1)"></path></g></g><defs><mask id="SvgjsMask1076"><rect width="1440" height="560" fill="#ffffff"></rect></mask></defs></svg>