<svg xmlns="http://www.w3.org/2000/svg" width="944" height="719" fill="none" viewBox="0 0 944 719"><path fill="#ED2F59" d="M732.777 0.481124C778.797 3.15112 825.297 17.7384 861.202 49.0945C892.705 76.6193 915.425 119.893 909.882 163.372C903.34 214.699 861.132 252.036 845.475 300.996C835.401 332.472 836.972 367.203 843.564 399.764C847.806 420.744 854.329 441.746 866.864 458.374C889.444 488.287 930.191 502.722 941.286 539.461C953.351 579.414 922.948 618.595 894.386 647.01C871.586 669.683 847.706 692.248 818.974 704.675C797.965 713.771 775.165 717.038 752.566 718.34C690.16 721.892 627.767 711.077 569.489 686.604C541.567 674.85 514.555 659.947 485.333 652.86C423.057 637.752 358.98 659.535 295.863 669.737C241.758 678.457 186.775 678.633 132.624 670.258C98.5496 664.984 63.3447 655.465 37.6838 630.588C11.6729 605.332 -1.33271 566.237 0.107898 528.358C1.54851 490.479 16.2748 454.011 37.964 424.272C65.9758 385.861 104.612 358.531 138.226 325.797C172.454 292.447 201.57 253.399 224.483 210.119C237.688 185.156 248.923 158.662 266.03 136.683C292.712 102.429 331.408 82.057 370.074 66.3192C459.272 30.0681 551.791 22.6876 644.79 6.66769C673.853 1.64246 703.335 -1.19033 732.777 0.481124Z" opacity=".1"/><path fill="#ED2F59" d="M865.354 556.702C863.144 555.206 861.537 553.186 860.745 550.912C860.143 548.622 861.322 545.862 863.97 545.022C866.93 544.082 870.095 545.792 872.49 547.512C874.884 549.232 877.64 551.202 880.769 550.832C879.156 549.615 877.95 548.072 877.267 546.353C876.584 544.634 876.447 542.797 876.87 541.022C877.012 540.287 877.386 539.597 877.953 539.022C879.601 537.562 882.586 538.192 884.547 539.342C890.805 542.992 892.55 550.062 892.586 556.412C893.211 554.122 892.682 551.732 892.706 549.412C892.73 547.092 893.488 544.412 895.883 543.192C897.355 542.515 899.014 542.17 900.696 542.192C903.5 542.102 906.641 542.342 908.554 544.052C910.961 546.172 910.323 549.732 908.253 552.052C906.183 554.372 903.019 555.862 900.107 557.472C897.777 558.626 895.79 560.202 894.294 562.082C894.114 562.344 893.969 562.623 893.861 562.912H876.22C872.282 561.253 868.627 559.164 865.354 556.702V556.702ZM164.123 535.602C161.9 534.109 160.276 532.09 159.466 529.812C158.864 527.522 160.044 524.812 162.691 523.922C165.651 522.982 168.816 524.692 171.211 526.412C173.605 528.132 176.361 530.102 179.502 529.732C177.885 528.518 176.675 526.975 175.992 525.255C175.308 523.535 175.174 521.697 175.603 519.922C175.733 519.184 176.108 518.492 176.686 517.922C178.323 516.462 181.307 517.092 183.268 518.242C189.526 521.892 191.271 528.962 191.307 535.312C191.945 533.022 191.403 530.632 191.427 528.312C191.451 525.992 192.221 523.312 194.604 522.092C196.076 521.415 197.735 521.07 199.417 521.092C202.233 521.002 205.362 521.242 207.287 522.952C209.694 525.072 209.056 528.632 206.974 530.952C204.893 533.272 201.74 534.762 198.828 536.372C196.498 537.526 194.512 539.102 193.016 540.982C192.84 541.247 192.695 541.524 192.582 541.812H174.953C171.026 540.152 167.384 538.064 164.123 535.602V535.602ZM561.386 582.352C559.178 580.854 557.567 578.835 556.765 576.562C556.176 574.262 557.355 571.562 559.99 570.672C562.951 569.732 566.116 571.432 568.51 573.162C570.905 574.892 573.661 576.842 576.801 576.482C575.186 575.266 573.978 573.724 573.294 572.004C572.611 570.285 572.476 568.448 572.903 566.672C573.039 565.936 573.413 565.245 573.985 564.672C575.634 563.212 578.606 563.842 580.58 564.992C586.837 568.652 588.582 575.712 588.618 582.072C589.244 579.782 588.715 577.392 588.727 575.072C588.739 572.752 589.521 570.072 591.903 568.852C593.377 568.178 595.035 567.833 596.717 567.852C599.533 567.772 602.661 568.002 604.587 569.712C606.993 571.842 606.356 575.402 604.274 577.712C602.192 580.022 599.039 581.512 596.139 583.132C593.779 584.3 591.77 585.901 590.267 587.812C590.094 588.074 589.949 588.348 589.834 588.632H572.217C568.282 586.954 564.639 584.842 561.386 582.352V582.352Z"/><path fill="#F6F7F9" d="M848.281 129H535V278.486H848.281V129Z"/><path fill="#ED2F59" d="M789.306 223.214C771.293 223.214 756.691 210.746 756.691 195.366C756.691 179.986 771.293 167.518 789.306 167.518C807.318 167.518 821.92 179.986 821.92 195.366C821.92 210.746 807.318 223.214 789.306 223.214Z" opacity=".2"/><path fill="#ED2F59" d="M716.903 162.356H574.788V169.986H716.903V162.356ZM716.903 181.822H644.51V189.452H716.903V181.822ZM716.903 201.28H599.813V208.91H716.903V201.28ZM716.903 220.738H574.788V228.367H716.903V220.738Z" opacity=".2"/><path fill="#ED2F59" fill-opacity=".4" d="M614.323 245H575V259.752H614.323V245Z"/><g clip-path="url(#clip0_69:411)"><path fill="#9F616A" d="M425.006 290.072L431.922 303.851L474.341 351.882C474.341 351.882 503.39 378.652 487.252 380.227C471.114 381.802 460.509 355.425 460.509 355.425L410.712 313.3L405.179 294.009L425.006 290.072Z"/><path fill="#ED2F59" d="M403.796 234.168L410.479 235.766C410.479 235.766 440.491 303.838 437.724 312.106C434.958 320.373 422.508 330.609 416.975 329.822C411.442 329.034 403.796 234.168 403.796 234.168Z"/><path fill="#2F2E41" d="M310.407 583.996C310.407 583.996 313.343 596.554 304.521 591.528C295.7 586.502 291.101 576.782 291.101 576.782L310.407 583.996Z"/><path fill="#2F2E41" d="M414.862 300.702C414.862 300.702 508.461 582.584 475.264 590.852C442.066 599.119 393.191 590.064 393.652 584.552C394.113 579.041 402.412 469.989 402.412 469.989C402.412 469.989 353.999 614.867 294.058 581.009C234.117 547.152 247.489 540.853 253.022 538.491C258.555 536.129 342.01 423.927 341.549 403.061C341.088 382.196 342.472 316.843 352.615 307.001L414.862 300.702Z"/><path fill="#3F3D56" d="M208.391 599.928H776.454V598.084H208L208.391 599.928Z"/><path fill="#2F2E41" d="M355.411 200.481C359.012 197.7 361.259 193.865 361.704 189.736C362.15 185.607 360.762 181.486 357.816 178.19C358.206 178.502 358.587 178.826 358.952 179.171C362.393 182.424 364.179 186.711 363.919 191.089C363.66 195.467 361.375 199.577 357.567 202.517C353.759 205.457 348.739 206.985 343.612 206.766C338.485 206.547 333.669 204.599 330.223 201.35C329.858 201.005 329.519 200.649 329.194 200.286C332.74 203.12 337.402 204.712 342.258 204.749C347.114 204.785 351.808 203.261 355.411 200.481V200.481Z"/><path fill="#2F2E41" d="M357.226 204.445C335.199 204.445 317.342 189.198 317.342 170.39C317.342 151.583 335.199 136.336 357.226 136.336C379.253 136.336 397.11 151.583 397.11 170.39C397.11 189.198 379.253 204.445 357.226 204.445Z"/><path fill="#2F2E41" d="M464.659 589.671C464.659 589.671 475.264 598.725 464.659 598.725C454.054 598.725 443.91 592.82 443.91 592.82L464.659 589.671Z"/><path fill="#9F616A" d="M382.586 191.65C382.586 191.65 375.67 216.058 380.742 220.783C385.813 225.507 396.879 229.05 396.879 229.05L395.035 273.144C395.035 273.144 373.825 266.844 372.903 266.057C371.981 265.27 353.077 239.68 353.077 239.68L334.633 224.72C334.633 224.72 362.759 213.303 354.46 193.618C346.16 173.934 382.586 191.65 382.586 191.65Z"/><path fill="#9F616A" d="M341.859 183.512C339.738 172.351 348.614 161.836 361.685 160.025C374.756 158.214 387.071 165.793 389.192 176.953C391.313 188.114 382.437 198.629 369.366 200.44C356.295 202.251 343.98 194.672 341.859 183.512Z"/><path fill="#ED2F59" d="M352.615 307.001C352.615 307.001 342.01 277.08 336.938 273.143C331.866 269.207 319.417 232.2 319.417 232.2C319.417 232.2 327.256 223.145 333.711 223.145C340.166 223.145 346.16 225.113 353.537 231.019C357.011 233.8 363.348 236.859 369.081 239.319C371.115 240.206 373.336 240.739 375.615 240.885C377.893 241.032 380.182 240.789 382.35 240.171C384.517 239.554 386.518 238.574 388.237 237.288C389.955 236.003 391.356 234.438 392.359 232.685C393.505 230.605 393.882 228.613 392.729 227.082C392.729 227.082 409.789 231.019 410.712 236.53C411.634 242.042 410.712 253.459 412.095 255.821C413.478 258.183 417.628 261.726 415.784 276.687C413.939 291.647 417.708 310.565 417.708 310.565C400.485 324.597 376.623 315.935 352.615 307.001Z"/><path fill="#2F2E41" d="M365.756 173.737C354.552 173.737 345.469 168.449 345.469 161.926C345.469 155.403 354.552 150.115 365.756 150.115C376.961 150.115 386.044 155.403 386.044 161.926C386.044 168.449 376.961 173.737 365.756 173.737Z"/><path fill="#2F2E41" d="M331.175 161.139C320.48 161.139 311.81 153.736 311.81 144.604C311.81 135.472 320.48 128.069 331.175 128.069C341.87 128.069 350.541 135.472 350.541 144.604C350.541 153.736 341.87 161.139 331.175 161.139Z"/><path fill="#2F2E41" d="M317.343 156.414C322.199 156.414 326.877 154.855 330.451 152.048C334.024 149.24 336.232 145.389 336.636 141.257C336.68 141.712 336.708 142.171 336.708 142.635C336.707 147.019 334.668 151.223 331.038 154.323C327.408 157.423 322.485 159.166 317.351 159.168C312.217 159.17 307.292 157.431 303.659 154.333C300.026 151.235 297.982 147.033 297.977 142.649V142.635C297.977 142.171 298.005 141.712 298.049 141.257C298.453 145.389 300.661 149.24 304.235 152.048C307.808 154.855 312.487 156.414 317.343 156.414V156.414Z"/><path fill="#ED2F59" d="M362.763 409.301H369.204L382.078 505.179L339.618 503.962L362.763 409.301Z"/><path fill="#000" d="M362.763 409.301H369.204L382.078 505.179L339.618 503.962L362.763 409.301Z" opacity=".2"/><path fill="#ED2F59" d="M364.91 408.076L372.777 504.571L276.408 510.679L268.541 416.626L364.91 408.076Z"/><path fill="#000" d="M332.464 417.851C331.671 417.851 331.029 417.303 331.029 416.626C331.029 415.95 331.671 415.401 332.464 415.401C333.256 415.401 333.898 415.95 333.898 416.626C333.898 417.303 333.256 417.851 332.464 417.851Z" opacity=".2"/><path fill="#000" d="M302.422 420.901C301.63 420.901 300.987 420.353 300.987 419.676C300.987 419 301.63 418.451 302.422 418.451C303.215 418.451 303.857 419 303.857 419.676C303.857 420.353 303.215 420.901 302.422 420.901Z" opacity=".2"/><path fill="#3F3D56" d="M302.066 419.685H302.778C302.778 419.423 302.273 393.662 319.6 391.288C323.014 390.823 325.804 391.482 327.892 393.248C335.046 399.306 332.088 416.415 332.058 416.584L332.761 416.677C332.889 415.959 335.798 399.086 328.387 392.817C326.131 390.899 323.123 390.181 319.481 390.68C301.551 393.13 302.056 419.423 302.066 419.685Z"/><path fill="#9F616A" d="M318.034 286.529L320.34 308.576L315.729 374.716C315.729 374.716 305.124 408.179 321.262 407.392C337.4 406.605 331.406 372.353 331.406 372.353L338.783 295.584L318.034 286.529Z"/><path fill="#ED2F59" d="M331.406 226.688L319.417 232.2C319.417 232.2 303.28 325.854 312.501 334.909C321.723 343.964 340.627 347.507 341.549 343.964C342.472 340.42 345.699 268.419 345.699 268.419L331.406 226.688Z"/><g opacity=".7"><path fill="#F6F7F9" d="M815.852 287H626.894V377.158H815.852V287Z" opacity=".7"/><path fill="#ED2F59" d="M780.269 343.819C769.404 343.819 760.597 336.299 760.597 327.022C760.597 317.746 769.404 310.226 780.269 310.226C791.133 310.226 799.94 317.746 799.94 327.022C799.94 336.299 791.133 343.819 780.269 343.819Z" opacity=".2"/><path fill="#ED2F59" d="M736.611 307.117H650.899V311.721H736.611V307.117ZM736.611 318.852H692.944V323.457H736.611V318.852ZM736.611 330.588H665.989V335.192H736.611V330.588ZM736.611 342.332H650.899V346.936H736.611V342.332ZM674.618 359.263H650.899V368.16H674.618V359.263Z" opacity=".2"/><path fill="#F6F7F9" d="M752.958 438.37H564V528.528H752.958V438.37Z" opacity=".7"/><path fill="#ED2F59" d="M717.385 495.197C706.521 495.197 697.713 487.677 697.713 478.401C697.713 469.125 706.521 461.605 717.385 461.605C728.249 461.605 737.057 469.125 737.057 478.401C737.057 487.677 728.249 495.197 717.385 495.197Z" opacity=".2"/><path fill="#ED2F59" d="M673.718 458.495H588.006V463.1H673.718V458.495ZM673.718 470.231H630.05V474.836H673.718V470.231ZM673.718 481.966H603.096V486.571H673.718V481.966ZM673.718 493.702H588.006V498.307H673.718V493.702ZM611.725 510.642H588.006V519.539H611.725V510.642Z" opacity=".2"/></g></g><defs><clipPath id="clip0_69:411"><rect width="654.992" height="545.928" fill="#fff" transform="matrix(-1 0 0 1 862.992 54)"/></clipPath></defs></svg>