<svg width="1148" height="851" viewBox="0 0 1148 851" fill="none" xmlns="http://www.w3.org/2000/svg">
<path opacity="0.1" d="M891.132 0.569452C947.096 3.72962 1003.64 20.995 1047.31 58.1077C1085.62 90.6857 1113.25 141.904 1106.51 193.366C1098.55 254.115 1047.22 298.306 1028.18 356.256C1015.93 393.51 1017.84 434.618 1025.86 473.156C1031.02 497.988 1038.95 522.846 1054.19 542.526C1081.65 577.93 1131.21 595.016 1144.7 638.5C1159.37 685.787 1122.4 732.162 1087.66 765.793C1059.94 792.629 1030.9 819.336 995.956 834.045C970.407 844.811 942.68 848.677 915.197 850.219C839.304 854.423 763.429 841.622 692.556 812.656C658.6 798.744 625.752 781.106 590.214 772.718C514.48 754.836 436.556 780.618 359.799 792.693C294.003 803.014 227.137 803.222 161.284 793.31C119.846 787.067 77.0336 775.801 45.8274 746.357C14.1954 716.464 -1.6207 670.192 0.131226 625.358C1.88315 580.525 19.7919 537.362 46.1681 502.163C80.2333 456.7 127.219 424.354 168.097 385.609C209.721 346.137 245.13 299.92 272.994 248.694C289.053 219.148 302.716 187.79 323.52 161.777C355.967 121.234 403.026 97.1217 450.048 78.4947C558.521 35.5883 671.034 26.8528 784.131 7.8918C819.473 1.944 855.327 -1.40887 891.132 0.569452Z" fill="#ED2F59"/>
<path d="M883.779 650.906C881.546 649.136 879.922 646.745 879.121 644.053C878.513 641.342 879.705 638.076 882.381 637.081C885.372 635.969 888.571 637.993 890.991 640.028C893.411 642.064 896.195 644.396 899.357 643.958C897.728 642.517 896.509 640.691 895.819 638.657C895.128 636.622 894.99 634.449 895.417 632.347C895.561 631.478 895.938 630.661 896.512 629.98C898.178 628.252 901.194 628.997 903.176 630.359C909.5 634.679 911.263 643.047 911.299 650.562C911.932 647.852 911.397 645.023 911.421 642.277C911.445 639.531 912.212 636.359 914.632 634.915C916.119 634.114 917.796 633.706 919.496 633.732C922.33 633.625 925.504 633.909 927.437 635.933C929.869 638.442 929.225 642.656 927.133 645.402C925.041 648.148 921.843 649.911 918.9 651.817C916.546 653.183 914.538 655.048 913.026 657.273C912.844 657.584 912.697 657.914 912.589 658.256H894.76C890.78 656.292 887.087 653.82 883.779 650.906V650.906ZM175.12 625.932C172.874 624.165 171.232 621.775 170.414 619.079C169.806 616.369 170.998 613.161 173.673 612.108C176.665 610.995 179.863 613.019 182.283 615.055C184.703 617.091 187.488 619.422 190.662 618.984C189.028 617.547 187.805 615.721 187.115 613.686C186.424 611.65 186.288 609.475 186.722 607.373C186.853 606.5 187.232 605.681 187.816 605.006C189.47 603.278 192.486 604.024 194.468 605.385C200.792 609.705 202.555 618.073 202.592 625.589C203.236 622.878 202.689 620.05 202.714 617.304C202.738 614.558 203.516 611.386 205.924 609.942C207.411 609.14 209.089 608.732 210.788 608.758C213.634 608.652 216.796 608.936 218.742 610.96C221.174 613.469 220.529 617.682 218.426 620.428C216.322 623.174 213.136 624.938 210.193 626.843C207.838 628.209 205.831 630.075 204.319 632.3C204.142 632.613 203.995 632.942 203.881 633.282H186.065C182.096 631.318 178.416 628.846 175.12 625.932V625.932ZM576.592 681.265C574.36 679.492 572.732 677.103 571.922 674.412C571.326 671.689 572.518 668.494 575.181 667.44C578.173 666.328 581.371 668.34 583.791 670.388C586.211 672.435 588.996 674.743 592.17 674.317C590.538 672.879 589.317 671.053 588.626 669.017C587.935 666.982 587.799 664.808 588.23 662.706C588.368 661.835 588.746 661.017 589.324 660.339C590.99 658.611 593.994 659.356 595.989 660.718C602.312 665.05 604.076 673.406 604.112 680.933C604.745 678.223 604.209 675.394 604.222 672.648C604.234 669.902 605.024 666.73 607.432 665.286C608.921 664.488 610.597 664.081 612.297 664.103C615.142 664.008 618.304 664.28 620.25 666.304C622.682 668.825 622.038 673.039 619.934 675.773C617.83 678.507 614.644 680.27 611.713 682.188C609.327 683.571 607.298 685.465 605.778 687.727C605.603 688.037 605.457 688.362 605.34 688.698H587.537C583.561 686.712 579.879 684.212 576.592 681.265V681.265Z" fill="#ED2F59"/>
<path d="M961 181H644.4V357.93H961V181Z" fill="#F6F7F9"/>
<path opacity="0.2" d="M901.4 292.51C883.197 292.51 868.44 277.753 868.44 259.55C868.44 241.347 883.197 226.59 901.4 226.59C919.603 226.59 934.36 241.347 934.36 259.55C934.36 277.753 919.603 292.51 901.4 292.51Z" fill="#ED2F59"/>
<path opacity="0.2" d="M828.23 220.48H684.61V229.51H828.23V220.48ZM828.23 243.52H755.07V252.55H828.23V243.52ZM828.23 266.55H709.9V275.58H828.23V266.55ZM828.23 289.58H684.61V298.61H828.23V289.58Z" fill="#ED2F59"/>
<path d="M724.36 322.82H684.62V340.28H724.36V322.82Z" fill="#ED2F59" fill-opacity="0.4"/>
<g clip-path="url(#clip0_69:411)">
<path d="M431.374 365.412L438.364 381.721L481.233 438.569C481.233 438.569 510.589 470.255 494.28 472.119C477.971 473.983 467.254 442.763 467.254 442.763L416.929 392.904L411.338 370.072L431.374 365.412Z" fill="#9F616A"/>
<path d="M409.939 299.245L416.694 301.136C416.694 301.136 447.023 381.706 444.227 391.491C441.431 401.276 428.85 413.391 423.259 412.459C417.667 411.527 409.939 299.245 409.939 299.245Z" fill="#ED2F59"/>
<path d="M315.562 713.297C315.562 713.297 318.528 728.16 309.613 722.212C300.698 716.263 296.05 704.759 296.05 704.759L315.562 713.297Z" fill="#2F2E41"/>
<path d="M421.123 377.993C421.123 377.993 515.714 711.626 482.165 721.411C448.615 731.196 399.222 720.479 399.688 713.956C400.154 707.432 408.542 578.359 408.542 578.359C408.542 578.359 359.615 749.835 299.039 709.762C238.464 669.689 251.977 662.233 257.568 659.437C263.16 656.642 347.5 523.841 347.034 499.145C346.568 474.449 347.966 397.098 358.217 385.449L421.123 377.993Z" fill="#2F2E41"/>
<path d="M212.465 732.154H786.545V729.972H212.07L212.465 732.154Z" fill="#3F3D56"/>
<path d="M361.042 259.373C364.682 256.082 366.952 251.542 367.402 246.656C367.852 241.769 366.45 236.891 363.473 232.99C363.867 233.359 364.252 233.743 364.621 234.151C368.098 238.001 369.903 243.075 369.641 248.257C369.378 253.438 367.069 258.303 363.221 261.783C359.372 265.262 354.3 267.071 349.118 266.812C343.937 266.553 339.07 264.247 335.588 260.402C335.219 259.994 334.876 259.572 334.548 259.143C338.131 262.496 342.843 264.381 347.75 264.424C352.657 264.467 357.402 262.664 361.042 259.373V259.373Z" fill="#2F2E41"/>
<path d="M362.877 264.064C340.616 264.064 322.571 246.019 322.571 223.758C322.571 201.498 340.616 183.452 362.877 183.452C385.137 183.452 403.183 201.498 403.183 223.758C403.183 246.019 385.137 264.064 362.877 264.064Z" fill="#2F2E41"/>
<path d="M471.447 720.013C471.447 720.013 482.164 730.731 471.447 730.731C460.73 730.731 450.479 723.741 450.479 723.741L471.447 720.013Z" fill="#2F2E41"/>
<path d="M388.505 248.92C388.505 248.92 381.516 277.81 386.641 283.402C391.767 288.994 402.95 293.187 402.95 293.187L401.086 345.376C401.086 345.376 379.652 337.92 378.72 336.988C377.788 336.056 358.683 305.768 358.683 305.768L340.045 288.062C340.045 288.062 368.469 274.549 360.081 251.25C351.694 227.952 388.505 248.92 388.505 248.92Z" fill="#9F616A"/>
<path d="M347.347 239.289C345.203 226.079 354.174 213.633 367.383 211.49C380.592 209.346 393.038 218.317 395.182 231.526C397.325 244.735 388.355 257.181 375.146 259.325C361.936 261.468 349.49 252.498 347.347 239.289Z" fill="#9F616A"/>
<path d="M358.217 385.449C358.217 385.449 347.5 350.035 342.374 345.376C337.249 340.716 324.667 296.915 324.667 296.915C324.667 296.915 332.589 286.198 339.112 286.198C345.636 286.198 351.694 288.528 359.149 295.517C362.66 298.809 369.064 302.43 374.857 305.341C376.913 306.392 379.158 307.022 381.46 307.195C383.763 307.368 386.076 307.081 388.267 306.35C390.457 305.619 392.479 304.459 394.216 302.938C395.953 301.416 397.369 299.564 398.382 297.489C399.54 295.028 399.921 292.67 398.756 290.857C398.756 290.857 415.997 295.517 416.929 302.041C417.861 308.564 416.929 322.077 418.327 324.873C419.725 327.669 423.918 331.863 422.055 349.569C420.191 367.276 424 389.667 424 389.667C406.594 406.276 382.479 396.023 358.217 385.449Z" fill="#ED2F59"/>
<path d="M371.497 227.719C360.174 227.719 350.995 221.46 350.995 213.74C350.995 206.02 360.174 199.761 371.497 199.761C382.821 199.761 392 206.02 392 213.74C392 221.46 382.821 227.719 371.497 227.719Z" fill="#2F2E41"/>
<path d="M336.549 212.808C325.741 212.808 316.979 204.046 316.979 193.237C316.979 182.429 325.741 173.667 336.549 173.667C347.358 173.667 356.12 182.429 356.12 193.237C356.12 204.046 347.358 212.808 336.549 212.808Z" fill="#2F2E41"/>
<path d="M322.57 207.216C327.478 207.216 332.206 205.371 335.817 202.048C339.429 198.726 341.66 194.167 342.068 189.277C342.113 189.815 342.141 190.358 342.141 190.908C342.14 196.096 340.079 201.072 336.411 204.741C332.743 208.411 327.767 210.473 322.579 210.475C317.39 210.477 312.413 208.419 308.742 204.753C305.07 201.087 303.005 196.113 303 190.924V190.908C303 190.358 303.028 189.815 303.073 189.277C303.481 194.167 305.712 198.726 309.324 202.048C312.935 205.371 317.663 207.216 322.57 207.216V207.216Z" fill="#2F2E41"/>
<path d="M368.472 506.53H374.982L387.992 620.01L345.082 618.57L368.472 506.53Z" fill="#ED2F59"/>
<path opacity="0.2" d="M368.472 506.53H374.982L387.992 620.01L345.082 618.57L368.472 506.53Z" fill="black"/>
<path d="M370.642 505.08L378.592 619.29L281.202 626.52L273.252 515.2L370.642 505.08Z" fill="#ED2F59"/>
<path opacity="0.2" d="M337.852 516.65C337.051 516.65 336.402 516.001 336.402 515.2C336.402 514.399 337.051 513.75 337.852 513.75C338.653 513.75 339.302 514.399 339.302 515.2C339.302 516.001 338.653 516.65 337.852 516.65Z" fill="black"/>
<path opacity="0.2" d="M307.492 520.26C306.691 520.26 306.042 519.611 306.042 518.81C306.042 518.009 306.691 517.36 307.492 517.36C308.293 517.36 308.942 518.009 308.942 518.81C308.942 519.611 308.293 520.26 307.492 520.26Z" fill="black"/>
<path d="M307.132 518.82H307.852C307.852 518.51 307.342 488.02 324.852 485.21C328.302 484.66 331.122 485.44 333.232 487.53C340.462 494.7 337.472 514.95 337.442 515.15L338.152 515.26C338.282 514.41 341.222 494.44 333.732 487.02C331.452 484.75 328.412 483.9 324.732 484.49C306.612 487.39 307.122 518.51 307.132 518.82Z" fill="#3F3D56"/>
<path d="M323.27 361.219L325.6 387.313L320.94 465.595C320.94 465.595 310.223 505.202 326.531 504.27C342.84 503.339 336.783 462.799 336.783 462.799L344.238 371.936L323.27 361.219Z" fill="#9F616A"/>
<path d="M336.783 290.392L324.667 296.915C324.667 296.915 308.358 407.763 317.678 418.48C326.997 429.198 346.102 433.391 347.034 429.198C347.966 425.004 351.228 339.784 351.228 339.784L336.783 290.392Z" fill="#ED2F59"/>
<g opacity="0.7">
<path opacity="0.7" d="M859 379.91H668.04V486.62H859V379.91Z" fill="#F6F7F9"/>
<path opacity="0.2" d="M823.05 447.16C812.071 447.16 803.17 438.259 803.17 427.28C803.17 416.301 812.071 407.4 823.05 407.4C834.03 407.4 842.93 416.301 842.93 427.28C842.93 438.259 834.03 447.16 823.05 447.16Z" fill="#ED2F59"/>
<path opacity="0.2" d="M778.93 403.72H692.31V409.17H778.93V403.72ZM778.93 417.61H734.8V423.06H778.93V417.61ZM778.93 431.5H707.56V436.95H778.93V431.5ZM778.93 445.39H692.31V450.84H778.93V445.39ZM716.27 465.44H692.3V475.97H716.27V465.44Z" fill="#ED2F59"/>
<path opacity="0.7" d="M698.23 85H507.27V191.71H698.23V85Z" fill="#F6F7F9"/>
<path opacity="0.2" d="M662.27 152.25C651.29 152.25 642.39 143.349 642.39 132.37C642.39 121.391 651.29 112.49 662.27 112.49C673.249 112.49 682.15 121.391 682.15 132.37C682.15 143.349 673.249 152.25 662.27 152.25Z" fill="#ED2F59"/>
<path opacity="0.2" d="M618.15 108.81H531.53V114.26H618.15V108.81ZM618.15 122.7H574.02V128.15H618.15V122.7ZM618.15 136.59H546.78V142.04H618.15V136.59ZM618.15 150.49H531.53V155.94H618.15V150.49ZM555.5 170.53H531.53V181.06H555.5V170.53Z" fill="#ED2F59"/>
<path opacity="0.7" d="M634.67 264.16H443.71V370.87H634.67V264.16Z" fill="#F6F7F9"/>
<path opacity="0.2" d="M598.72 331.42C587.741 331.42 578.84 322.519 578.84 311.54C578.84 300.561 587.741 291.66 598.72 291.66C609.7 291.66 618.6 300.561 618.6 311.54C618.6 322.519 609.7 331.42 598.72 331.42Z" fill="#ED2F59"/>
<path opacity="0.2" d="M554.59 287.98H467.97V293.43H554.59V287.98ZM554.59 301.87H510.46V307.32H554.59V301.87ZM554.59 315.76H483.22V321.21H554.59V315.76ZM554.59 329.65H467.97V335.1H554.59V329.65ZM491.94 349.7H467.97V360.23H491.94V349.7Z" fill="#ED2F59"/>
</g>
</g>
<defs>
<clipPath id="clip0_69:411">
<rect width="661.93" height="646.154" fill="white" transform="matrix(-1 0 0 1 874 86)"/>
</clipPath>
</defs>
</svg>
