<svg width="944" height="719" viewBox="0 0 944 719" fill="none" xmlns="http://www.w3.org/2000/svg">
<path opacity="0.1" d="M211.223 0.481124C165.203 3.15112 118.703 17.7384 82.7982 49.0945C51.2949 76.6193 28.5753 119.893 34.1177 163.372C40.6604 214.699 82.8683 252.036 98.5249 300.996C108.599 332.472 107.028 367.203 100.436 399.764C96.1939 420.744 89.6712 441.746 77.1359 458.374C54.5563 488.286 13.8091 502.722 2.71442 539.461C-9.35068 579.413 21.0522 618.595 49.6142 647.01C72.4139 669.683 96.294 692.248 125.026 704.675C146.035 713.771 168.835 717.037 191.434 718.34C253.84 721.892 316.233 711.077 374.511 686.604C402.433 674.849 429.445 659.947 458.667 652.86C520.943 637.752 585.02 659.535 648.137 669.737C702.242 678.457 757.225 678.633 811.376 670.258C845.45 664.983 880.655 655.465 906.316 630.588C932.327 605.332 945.333 566.237 943.892 528.358C942.451 490.479 927.725 454.011 906.036 424.272C878.024 385.861 839.388 358.531 805.774 325.797C771.546 292.447 742.43 253.399 719.517 210.119C706.312 185.156 695.077 158.662 677.97 136.683C651.288 102.429 612.592 82.057 573.926 66.3192C484.728 30.0681 392.209 22.6876 299.21 6.66769C270.147 1.64246 240.665 -1.19033 211.223 0.481124V0.481124Z" fill="#ED2F59"/>
<g clip-path="url(#clip0_69:309)">
<path d="M164.956 588.868C143.536 600.418 134.341 624.931 134.341 624.931C134.341 624.931 159.874 630.718 181.294 619.168C202.714 607.618 211.909 583.105 211.909 583.105C211.909 583.105 186.375 577.318 164.956 588.868Z" fill="#F2F2F2"/>
<path d="M172.002 596.807C159.457 617.659 134.538 625.69 134.538 625.69C134.538 625.69 129.959 599.913 142.505 579.06C155.05 558.208 179.969 550.177 179.969 550.177C179.969 550.177 184.548 575.954 172.002 596.807Z" fill="#F2F2F2"/>
<path d="M568.445 123.125H492.445V168.125H568.445V123.125Z" fill="#2F2E41"/>
<path d="M417.152 130.381H377.968V116.717C377.968 111.521 380.032 106.538 383.706 102.864C387.38 99.1894 392.363 97.1253 397.56 97.1253C402.756 97.1253 407.739 99.1894 411.413 102.864C415.088 106.538 417.152 111.521 417.152 116.717V130.381ZM378.835 129.514H416.284V116.717C416.284 111.751 414.311 106.989 410.8 103.477C407.288 99.9656 402.526 97.9928 397.56 97.9928C392.594 97.9928 387.831 99.9656 384.319 103.477C380.808 106.989 378.835 111.751 378.835 116.717V129.514Z" fill="#3F3D56"/>
<path d="M436.527 128.502V123.162L336.877 125.832L333.723 261.092L348.471 279.31L436.527 128.502Z" fill="#3F3D56"/>
<path d="M454.167 126.622L346.158 129.08L348.471 279.31L452.705 268.075L454.167 126.622Z" fill="#ED2F59"/>
<path d="M545.997 613.355H533.737L527.905 566.067H545.999L545.997 613.355Z" fill="#FFB6B6"/>
<path d="M549.123 625.239L509.593 625.238V624.738C509.593 620.657 511.214 616.744 514.099 613.858C516.985 610.973 520.898 609.352 524.979 609.351H524.98L549.124 609.352L549.123 625.239Z" fill="#2F2E41"/>
<path d="M500.997 613.355H488.737L482.905 566.067H500.999L500.997 613.355Z" fill="#FFB6B6"/>
<path d="M504.123 625.239L464.593 625.238V624.738C464.593 620.657 466.214 616.744 469.099 613.858C471.985 610.973 475.898 609.352 479.979 609.351H479.98L504.124 609.352L504.123 625.239Z" fill="#2F2E41"/>
<path d="M464.992 317.259C464.992 317.259 447.08 355.834 463.262 433.48C479.445 511.125 479.579 596.368 479.579 596.368L504.322 596.771L518.222 413.251L525.5 594.18H549.878L571.362 416.111C571.362 416.111 585.5 336.598 553.973 322.361L464.992 317.259Z" fill="#2F2E41"/>
<path d="M550.732 181.125L496.555 176.131C479.565 188.515 470.029 210.756 471.987 233.705C474.641 264.819 473.743 307.639 452.445 326.241C452.445 326.241 510.494 372.057 562.06 328.591C562.06 328.591 544.427 281.353 556.533 262.489C568.64 243.625 573.007 190.625 550.732 181.125Z" fill="#E4E4E4"/>
<path d="M389.527 104.242C389.361 105.803 389.539 107.383 390.049 108.868C390.56 110.353 391.389 111.709 392.48 112.839C393.571 113.969 394.896 114.846 396.362 115.408C397.828 115.971 399.4 116.205 400.967 116.094L472.5 182.852L485.321 163.322L410.975 103.843C410.614 101.223 409.305 98.8268 407.296 97.1078C405.287 95.3889 402.717 94.4666 400.073 94.5158C397.43 94.565 394.896 95.5823 392.952 97.3749C391.008 99.1674 389.79 101.611 389.527 104.242V104.242Z" fill="#FFB6B6"/>
<path d="M459.142 172.539L476.112 155.107C476.595 154.611 477.179 154.225 477.824 153.975C478.47 153.725 479.162 153.618 479.853 153.659C480.544 153.701 481.218 153.891 481.828 154.216C482.439 154.542 482.973 154.995 483.393 155.545L498.105 174.828C500.628 177.313 502.063 180.697 502.095 184.238C502.127 187.779 500.754 191.189 498.276 193.719C495.799 196.249 492.419 197.694 488.878 197.736C485.337 197.778 481.923 196.414 479.386 193.944L459.776 179.805C459.214 179.4 458.747 178.879 458.405 178.277C458.063 177.675 457.855 177.007 457.795 176.317C457.735 175.628 457.824 174.933 458.057 174.281C458.289 173.629 458.659 173.035 459.142 172.539V172.539Z" fill="#E4E4E4"/>
<path d="M655.284 266.812C655.364 265.243 655.098 263.677 654.506 262.222C653.914 260.767 653.01 259.46 651.859 258.392C650.707 257.325 649.335 256.522 647.84 256.042C646.344 255.562 644.762 255.416 643.204 255.613L568.072 192.933L556.356 213.145L633.892 268.402C634.398 270.998 635.838 273.317 637.939 274.922C640.041 276.527 642.658 277.305 645.295 277.109C647.932 276.913 650.405 275.756 652.246 273.859C654.087 271.961 655.168 269.454 655.284 266.812V266.812Z" fill="#FFB6B6"/>
<path d="M581.982 202.488L566.007 220.835C565.553 221.357 564.991 221.775 564.36 222.061C563.73 222.346 563.045 222.492 562.353 222.489C561.661 222.486 560.977 222.334 560.349 222.043C559.721 221.752 559.163 221.329 558.713 220.803L542.953 202.367C540.295 200.026 538.674 196.727 538.445 193.193C538.216 189.659 539.397 186.178 541.731 183.514C544.064 180.85 547.359 179.22 550.893 178.981C554.426 178.742 557.91 179.915 560.581 182.241L580.946 195.268C581.529 195.641 582.025 196.135 582.4 196.717C582.774 197.299 583.019 197.955 583.118 198.641C583.216 199.326 583.165 200.024 582.97 200.688C582.774 201.352 582.437 201.966 581.982 202.488V202.488Z" fill="#E4E4E4"/>
<path d="M662.918 293.316H633.237V282.966C633.237 279.03 634.801 275.255 637.584 272.472C640.367 269.689 644.142 268.125 648.078 268.125C652.014 268.125 655.788 269.689 658.571 272.472C661.354 275.255 662.918 279.03 662.918 282.966L662.918 293.316ZM633.894 292.659H662.261V282.966C662.261 279.204 660.767 275.596 658.107 272.937C655.447 270.277 651.839 268.782 648.077 268.782C644.316 268.782 640.708 270.277 638.048 272.937C635.388 275.596 633.894 279.204 633.894 282.966V292.659Z" fill="#3F3D56"/>
<path d="M677.594 291.892V287.847L602.112 289.87L599.723 392.325L610.894 406.125L677.594 291.892Z" fill="#3F3D56"/>
<path d="M690.956 290.468L609.142 292.33L610.894 406.125L689.849 397.615L690.956 290.468Z" fill="#ED2F59"/>
<path d="M527.445 167.125C545.118 167.125 559.445 152.798 559.445 135.125C559.445 117.452 545.118 103.125 527.445 103.125C509.772 103.125 495.445 117.452 495.445 135.125C495.445 152.798 509.772 167.125 527.445 167.125Z" fill="#FFB6B6"/>
<path d="M512.712 120.863C523.782 131.712 543.046 132.752 555.219 123.158C558.598 134.811 558.968 147.13 556.294 158.965C553.621 170.8 547.991 181.764 539.931 190.834C546.703 193.28 554.498 191.671 560.551 187.771C566.604 183.871 571.086 177.917 574.469 171.561C582.842 155.826 584.939 136.613 579.015 119.803C573.091 102.992 558.898 89.0522 541.655 84.5384C524.412 80.0247 504.642 85.6003 493.121 99.201C481.075 113.423 479.123 134.262 484.402 152.137C489.681 170.013 501.26 185.363 513.981 198.985C507.871 183.272 503.819 166.835 501.926 150.083C501.279 144.346 500.901 138.432 502.521 132.891C504.142 127.349 508.131 122.187 513.691 120.63" fill="#2F2E41"/>
<path d="M706 627.125H325C324.735 627.125 324.48 627.02 324.293 626.832C324.105 626.645 324 626.39 324 626.125C324 625.86 324.105 625.606 324.293 625.418C324.48 625.231 324.735 625.125 325 625.125H706C706.265 625.125 706.52 625.231 706.707 625.418C706.895 625.606 707 625.86 707 626.125C707 626.39 706.895 626.645 706.707 626.832C706.52 627.02 706.265 627.125 706 627.125Z" fill="#CACACA"/>
<path d="M218 627.125H56C55.7348 627.125 55.4804 627.02 55.2929 626.832C55.1054 626.645 55 626.39 55 626.125C55 625.86 55.1054 625.606 55.2929 625.418C55.4804 625.231 55.7348 625.125 56 625.125H218C218.265 625.125 218.52 625.231 218.707 625.418C218.895 625.606 219 625.86 219 626.125C219 626.39 218.895 626.645 218.707 626.832C218.52 627.02 218.265 627.125 218 627.125Z" fill="#CACACA"/>
<path d="M646.918 540.316H617.237V529.966C617.237 526.03 618.801 522.255 621.584 519.472C624.367 516.689 628.142 515.125 632.078 515.125C636.014 515.125 639.788 516.689 642.571 519.472C645.354 522.255 646.918 526.03 646.918 529.966L646.918 540.316ZM617.894 539.659H646.261V529.966C646.261 526.204 644.767 522.596 642.107 519.937C639.447 517.277 635.839 515.782 632.077 515.782C628.316 515.782 624.708 517.277 622.048 519.937C619.388 522.596 617.894 526.204 617.894 529.966V539.659Z" fill="#CACACA"/>
<path d="M661.594 538.892V534.847L586.112 536.87L583.723 639.325L594.894 653.125L661.594 538.892Z" fill="#CACACA"/>
<path d="M674.956 537.468L593.142 539.33L594.894 653.125L673.849 644.615L674.956 537.468Z" fill="#E4E4E4"/>
</g>
<path d="M106.185 540.63C108.021 539.135 109.357 537.115 110.015 534.84C110.515 532.55 109.535 529.79 107.335 528.95C104.875 528.01 102.245 529.72 100.255 531.44C98.2651 533.16 95.9751 535.13 93.3751 534.76C94.715 533.543 95.7174 532 96.2851 530.281C96.8528 528.562 96.9665 526.726 96.6151 524.95C96.4971 524.216 96.1866 523.526 95.7151 522.95C94.3451 521.49 91.8651 522.12 90.2351 523.27C85.0351 526.92 83.5851 533.99 83.5551 540.34C83.0351 538.05 83.4751 535.66 83.4551 533.34C83.4351 531.02 82.8051 528.34 80.8151 527.12C79.5921 526.443 78.2129 526.098 76.8151 526.12C74.4851 526.03 71.8751 526.27 70.2851 527.98C68.2851 530.1 68.8151 533.66 70.5351 535.98C72.2551 538.3 74.8851 539.79 77.3051 541.4C79.241 542.554 80.8919 544.13 82.1351 546.01C82.2849 546.273 82.4057 546.551 82.4951 546.84H97.1551C100.428 545.181 103.465 543.093 106.185 540.63V540.63ZM688.915 519.53C690.762 518.037 692.112 516.018 692.785 513.74C693.285 511.45 692.305 508.74 690.105 507.85C687.645 506.91 685.015 508.62 683.025 510.34C681.035 512.06 678.745 514.03 676.135 513.66C677.479 512.446 678.484 510.903 679.052 509.183C679.62 507.464 679.731 505.626 679.375 503.85C679.267 503.113 678.956 502.42 678.475 501.85C677.115 500.39 674.635 501.02 673.005 502.17C667.805 505.82 666.355 512.89 666.325 519.24C665.795 516.95 666.245 514.56 666.225 512.24C666.205 509.92 665.565 507.24 663.585 506.02C662.362 505.343 660.983 504.998 659.585 505.02C657.245 504.93 654.645 505.17 653.045 506.88C651.045 509 651.575 512.56 653.305 514.88C655.035 517.2 657.655 518.69 660.075 520.3C662.011 521.454 663.662 523.03 664.905 524.91C665.051 525.175 665.171 525.453 665.265 525.74H679.915C683.179 524.081 686.205 521.992 688.915 519.53V519.53ZM358.785 566.28C360.62 564.782 361.959 562.764 362.625 560.49C363.115 558.19 362.135 555.49 359.945 554.6C357.485 553.66 354.855 555.36 352.865 557.09C350.875 558.82 348.585 560.77 345.975 560.41C347.317 559.195 348.321 557.652 348.889 555.932C349.457 554.213 349.569 552.376 349.215 550.6C349.102 549.864 348.791 549.173 348.315 548.6C346.945 547.14 344.475 547.77 342.835 548.92C337.635 552.58 336.185 559.64 336.155 566C335.635 563.71 336.075 561.32 336.065 559C336.055 556.68 335.405 554 333.425 552.78C332.201 552.106 330.823 551.761 329.425 551.78C327.085 551.7 324.485 551.93 322.885 553.64C320.885 555.77 321.415 559.33 323.145 561.64C324.875 563.95 327.495 565.44 329.905 567.06C331.867 568.228 333.536 569.829 334.785 571.74C334.929 572.002 335.05 572.277 335.145 572.56H349.785C353.055 570.882 356.082 568.77 358.785 566.28V566.28Z" fill="#ED2F59"/>
<defs>
<clipPath id="clip0_69:309">
<rect width="652" height="570.125" fill="white" transform="translate(55 83)"/>
</clipPath>
</defs>
</svg>
