<svg xmlns="http://www.w3.org/2000/svg" width="944" height="663" fill="none" viewBox="0 0 944 663"><path fill="#ED2F59" d="M211.133 0.443284C165.133 2.90328 118.653 16.3433 82.7633 45.2333C51.2733 70.5933 28.5633 110.463 34.1033 150.523C40.6433 197.813 82.8333 232.213 98.4833 277.323C108.553 306.323 106.983 338.323 100.393 368.323C96.1533 387.653 89.6333 407.003 77.1033 422.323C54.5333 449.883 13.8033 463.183 2.71327 497.033C-9.34673 533.843 21.0433 569.943 49.5933 596.123C72.3833 617.013 96.2533 637.803 124.973 649.253C145.973 657.633 168.763 660.643 191.353 661.843C253.733 665.116 316.099 655.151 374.353 632.603C402.263 621.773 429.263 608.043 458.473 601.513C520.723 587.593 584.773 607.663 647.863 617.063C701.945 625.097 756.905 625.259 811.033 617.543C845.093 612.683 880.283 603.913 905.933 580.993C931.933 557.723 944.933 521.703 943.493 486.803C942.053 451.903 927.333 418.303 905.653 390.903C877.653 355.513 839.033 330.333 805.433 300.173C771.22 269.446 742.116 233.47 719.213 193.593C706.013 170.593 694.783 146.183 677.683 125.933C651.013 94.3733 612.333 75.6033 573.683 61.1033C484.523 27.7033 392.043 20.9033 299.083 6.14328C270.033 1.51328 240.563 -1.09672 211.133 0.443284V0.443284Z" opacity=".1"/></svg>